<svg xmlns="http://www.w3.org/2000/svg" viewBox="0 0 557.48 667.5"><defs><style>.cls-1{fill:#2a2a2a;}</style></defs><title>Burning</title><g id="Layer_2" data-name="Layer 2"><g id="Layer_1-2" data-name="Layer 1"><path class="cls-1" d="M5.36,187.83,132.68,314.5,394.55,53.55c4.39,4.38,6.13,9.61,6.13,15.59q0,86.88,0,173.74v30L479,193.73a14,14,0,0,1,4.91,11.51q-.06,65.81,0,131.61v5l70.2-70.51,1.61.3c.53,2.63,1.5,5.26,1.5,7.89.11,34.6.07,69.2.07,103.79a15.49,15.49,0,0,0,0,2.26c1.16,7.76-2.72,13.58-7.74,18.62Q447.45,506.58,345.23,608.83q-25.91,25.95-51.83,51.88c-9.07,9.06-21.29,9.06-30.35,0Q135,532.48,6.85,404.24A17.17,17.17,0,0,1,1.48,391c.24-64.05.17-128.1.12-192.16C1.6,194.61,2.22,190.73,5.36,187.83ZM112.8,394.94c1.92,3.2,3,6,4.89,8q41.44,41.77,83.1,83.34,34.43,34.53,68.79,69.1c4.2,4.23,12.62,5,16.61,1.22,4.86-4.58,9.51-9.38,14.21-14.13,11.48-11.62,22.9-23.3,34.42-34.87,13.72-13.78,27.54-27.45,41.3-41.19q18.81-18.79,37.57-37.61c8.56-8.58,17.16-17.12,25.59-25.83,2-2.1,4.72-4.3,3.25-8H324.28c11.22,11.28,21.86,22.41,33,33,6.62,6.3,6.21,7.09.05,13.31-24.17,24.43-48.58,48.62-72.89,72.91-4.4,4.4-7.11,4.46-11.41.15q-20.47-20.48-40.93-41-16.36-16.32-32.87-32.49c-3.67-3.62-3.91-5.28-.07-9.37,5.21-5.56,10.67-10.88,16.08-16.24,6.63-6.58,13.31-13.1,20.68-20.35Z"/><path class="cls-1" d="M393.45,0c4.25,3,6,7.67,6.26,12.49.46,9.24.13,18.52.13,28a49.15,49.15,0,0,0-6.66-.5c-4.24.24-7.37,2.65-10.28,5.58Q273.48,155.19,164,264.76c-10.17,10.19-20.37,20.35-31.52,31.47a23.66,23.66,0,0,0-2.58-3.91Q74.95,237.2,20,182.1c-5.52-5.56-11.09-9.77-20-6.84v-7.11c0-8,0-16,0-24.06,0-4.39,1.23-7.24,3.84-9.66L131.31,261.26Z"/><path class="cls-1" d="M414.58,239.76c0-11.72,0-22.84.06-34a4.73,4.73,0,0,1,1.45-2.85q30.82-30.82,61.74-61.56a4.93,4.93,0,0,1,.84-.5c3.28,2,4.23,5.5,4.3,8.92.23,10.39.09,20.78.09,31.54-7.44-1.32-12.37,2.39-17.15,7.23C449.09,205.58,432.05,222.37,414.58,239.76Z"/><path class="cls-1" d="M554.08,217.53c.88,2.32,2.17,4.19,2.2,6.07.19,11.39.09,22.77.09,34.56-6.75-.31-11.23,3.33-15.57,7.77-13.32,13.62-26.87,27-40.34,40.49-.69.68-1.43,1.33-2.77,2.58V297.27c0-7-.11-14,.08-21a7.25,7.25,0,0,1,1.84-4.52q26.26-26.41,52.72-52.65C552.67,218.72,553,218.43,554.08,217.53Z"/></g></g></svg>